Damo and Ivor - Big Box Little Box DVDrip x264 AC3 DeViL303

Damo and Ivor are caricatures played by Andrew 'Andy' Quirke who takes on the twin personas of 'skanger' Damo and posh Ivor.The characters represent the northside-southside Dublin divide. The character of Damo, a colloquialism of the name Damian, originated in a YouTube video called Skanger me Banger, a satire of the MTV show, Pimp My Ride set in inner city Dublin.

"Big Box Little Box" is the second single released by Damo and Ivor, released on 24 October 2011

File info:
Complete name                            : Damo and Ivor - Big Box Little Box HQ.DVDrip x264 AC3 DeViL303.mkv
Format                                   : Matroska
Format version                           : Version 1
File size                                : 73.2 MiB
Duration                                 : 4mn 6s
Overall bit rate mode                    : Variable
Overall bit rate                         : 2 494 Kbps
Encoded date                             : UTC 2013-02-23 23:44:52
Writing application                      : mkvmerge v2.5.3 ('Boogie') built on Mar  7 2009 15:00:41
Writing library                          : libebml v0.7.7 + libmatroska v0.8.1

Video
ID                                       : 1
Format                                   : AVC
Format/Info                              : Advanced Video Codec
Format profile                           : High@L3.0
Format settings, CABAC                   : Yes
Format settings, ReFrames                : 3 frames
Codec ID                                 : V_MPEG4/ISO/AVC
Duration                                 : 4mn 6s
Bit rate mode                            : Variable
Bit rate                                 : 2 303 Kbps
Maximum bit rate                         : 12.0 Mbps
Width                                    : 720 pixels
Height                                   : 480 pixels
Display aspect ratio                     : 16:9
Original display aspect ratio            : 3:2
Frame rate mode                          : Constant
Frame rate                               : 29.970 fps
Standard                                 : NTSC
Color space                              : YUV
Chroma subsampling                       : 4:2:0
Bit depth                                : 8 bits
Scan type                                : Progressive
Bits/(Pixel*Frame)                       : 0.222
Stream size                              : 66.1 MiB (90%)
Writing library                          : x264 core 93 r1542M 5b86182
Encoding settings                        : cabac=1 / ref=4 / deblock=1:-1:-1 / 
Forced                                   : No

Audio
ID                                       : 2
Format                                   : AC-3
Format/Info                              : Audio Coding 3
Mode extension                           : CM (complete main)
Format settings, Endianness              : Big
Codec ID                                 : A_AC3
Duration                                 : 4mn 6s
Bit rate mode                            : Constant
Bit rate                                 : 192 Kbps
Channel(s)                               : 2 channels
Channel positions                        : Front: L R
Sampling rate                            : 48.0 KHz
Bit depth                                : 16 bits
Compression mode                         : Lossy
Stream size                              : 5.63 MiB (8%)
Default                                  : Yes
Forced                                   : No

Text
ID                                       : 3
Format                                   : SSA
Codec ID                                 : S_TEXT/SSA
Codec ID/Info                            : Sub Station Alpha
Compression mode                         : Lossless
Default                                  : Yes
Forced                                   : No

Menu
00:00:00.000                             : en:Chapter 1n[00:00:00]
00:00:22.440                             : en:Chapter 2n[00:00:22]
00:00:44.881                             : en:Chapter 3n[00:00:44]
00:01:07.321                             : en:Chapter 4n[00:01:07]
00:01:29.762                             : en:Chapter 5n[00:01:29]
00:01:52.202                             : en:Chapter 6n[00:01:52]
00:02:14.643                             : en:Chapter 7n[00:02:14]
00:02:37.083                             : en:Chapter 8n[00:02:37]
00:02:59.524                             : en:Chapter 9n[00:02:59]
00:03:21.964                             : en:Chapter 10n[00:03:21]
00:03:44.405                             : en:Chapter 11n[00:03:44]
00:04:04.846                             : en:Chapter 12n[00:04:04]

